<mxfile host="65bd71144e" modified="2021-01-19T02:06:18.411Z" agent="5.0 (X11; Linux x86_64) AppleWebKit/537.36 (KHTML, like Gecko) Code-Insiders/1.53.0-insider Chrome/87.0.4280.88 Electron/11.1.0 Safari/537.36" etag="egNtRN3GQHt6UC5wPcD1" version="13.10.0" type="embed" pages="2">
    <diagram id="jJcUq6ceXeP-96Yvb7Ql" name="Plan">
        <mxGraphModel dx="1086" dy="704" grid="1" gridSize="10" guides="1" tooltips="1" connect="1" arrows="1" fold="1" page="1" pageScale="1" pageWidth="850" pageHeight="1100" math="0" shadow="0">
            <root>
                <mxCell id="H1m3Zho_3u4-nAwAmxkF-0"/>
                <mxCell id="H1m3Zho_3u4-nAwAmxkF-1" parent="H1m3Zho_3u4-nAwAmxkF-0"/>
                <mxCell id="_zw212OprfjCx5LQ0E-o-0" value="" style="verticalLabelPosition=bottom;verticalAlign=top;html=1;shape=mxgraph.basic.rect;fillColor2=none;strokeWidth=1;size=20;indent=5;" vertex="1" parent="H1m3Zho_3u4-nAwAmxkF-1">
                    <mxGeometry x="228" y="851" width="520" height="129" as="geometry"/>
                </mxCell>
                <mxCell id="_zw212OprfjCx5LQ0E-o-2" value="" style="verticalLabelPosition=bottom;verticalAlign=top;html=1;shape=mxgraph.basic.rect;fillColor2=none;strokeWidth=1;size=20;indent=5;" vertex="1" parent="H1m3Zho_3u4-nAwAmxkF-1">
                    <mxGeometry x="228" y="301" width="520" height="129" as="geometry"/>
                </mxCell>
                <mxCell id="_zw212OprfjCx5LQ0E-o-5" value="" style="verticalLabelPosition=bottom;verticalAlign=top;html=1;shape=mxgraph.basic.rect;fillColor2=none;strokeWidth=1;size=20;indent=5;" vertex="1" parent="H1m3Zho_3u4-nAwAmxkF-1">
                    <mxGeometry x="458" y="491" width="170" height="129" as="geometry"/>
                </mxCell>
                <mxCell id="_zw212OprfjCx5LQ0E-o-6" value="" style="verticalLabelPosition=bottom;verticalAlign=top;html=1;shape=mxgraph.basic.rect;fillColor2=none;strokeWidth=1;size=20;indent=5;" vertex="1" parent="H1m3Zho_3u4-nAwAmxkF-1">
                    <mxGeometry x="228" y="671" width="192" height="129" as="geometry"/>
                </mxCell>
                <mxCell id="_zw212OprfjCx5LQ0E-o-7" value="" style="verticalLabelPosition=bottom;verticalAlign=top;html=1;shape=mxgraph.basic.rect;fillColor2=none;strokeWidth=1;size=20;indent=5;" vertex="1" parent="H1m3Zho_3u4-nAwAmxkF-1">
                    <mxGeometry x="228" y="491" width="190" height="129" as="geometry"/>
                </mxCell>
                <mxCell id="_zw212OprfjCx5LQ0E-o-8" value="" style="group" vertex="1" connectable="0" parent="H1m3Zho_3u4-nAwAmxkF-1">
                    <mxGeometry x="313" y="860" width="80" height="110" as="geometry"/>
                </mxCell>
                <mxCell id="_zw212OprfjCx5LQ0E-o-9" value="MRFS" style="shape=cylinder3;whiteSpace=wrap;html=1;boundedLbl=1;backgroundOutline=1;size=15;" vertex="1" parent="_zw212OprfjCx5LQ0E-o-8">
                    <mxGeometry width="80" height="110" as="geometry"/>
                </mxCell>
                <mxCell id="_zw212OprfjCx5LQ0E-o-13" value="数据源" style="html=1;shadow=0;dashed=0;align=center;verticalAlign=middle;shape=mxgraph.arrows2.arrow;dy=0;dx=30;notch=30;" vertex="1" parent="H1m3Zho_3u4-nAwAmxkF-1">
                    <mxGeometry x="80" y="850" width="132" height="130" as="geometry"/>
                </mxCell>
                <mxCell id="_zw212OprfjCx5LQ0E-o-14" value="数据层" style="html=1;shadow=0;dashed=0;align=center;verticalAlign=middle;shape=mxgraph.arrows2.arrow;dy=0;dx=30;notch=30;" vertex="1" parent="H1m3Zho_3u4-nAwAmxkF-1">
                    <mxGeometry x="80" y="490" width="132" height="130" as="geometry"/>
                </mxCell>
                <mxCell id="_zw212OprfjCx5LQ0E-o-15" value="数据采集" style="html=1;shadow=0;dashed=0;align=center;verticalAlign=middle;shape=mxgraph.arrows2.arrow;dy=0;dx=30;notch=30;" vertex="1" parent="H1m3Zho_3u4-nAwAmxkF-1">
                    <mxGeometry x="80" y="670" width="132" height="130" as="geometry"/>
                </mxCell>
                <mxCell id="_zw212OprfjCx5LQ0E-o-16" value="数据同步器" style="rounded=0;whiteSpace=wrap;html=1;" vertex="1" parent="H1m3Zho_3u4-nAwAmxkF-1">
                    <mxGeometry x="263" y="705" width="127" height="60" as="geometry"/>
                </mxCell>
                <mxCell id="_zw212OprfjCx5LQ0E-o-17" value="服务层" style="html=1;shadow=0;dashed=0;align=center;verticalAlign=middle;shape=mxgraph.arrows2.arrow;dy=0;dx=30;notch=30;" vertex="1" parent="H1m3Zho_3u4-nAwAmxkF-1">
                    <mxGeometry x="80" y="300" width="132" height="130" as="geometry"/>
                </mxCell>
                <mxCell id="_zw212OprfjCx5LQ0E-o-18" value="检索服务" style="rounded=0;whiteSpace=wrap;html=1;" vertex="1" parent="H1m3Zho_3u4-nAwAmxkF-1">
                    <mxGeometry x="263" y="335" width="195" height="60" as="geometry"/>
                </mxCell>
                <mxCell id="_zw212OprfjCx5LQ0E-o-19" value="查询包服务" style="rounded=0;whiteSpace=wrap;html=1;" vertex="1" parent="H1m3Zho_3u4-nAwAmxkF-1">
                    <mxGeometry x="620" y="335" width="100" height="60" as="geometry"/>
                </mxCell>
                <mxCell id="_zw212OprfjCx5LQ0E-o-20" value="表现层" style="html=1;shadow=0;dashed=0;align=center;verticalAlign=middle;shape=mxgraph.arrows2.arrow;dy=0;dx=30;notch=30;" vertex="1" parent="H1m3Zho_3u4-nAwAmxkF-1">
                    <mxGeometry x="80" y="110" width="132" height="130" as="geometry"/>
                </mxCell>
                <mxCell id="_zw212OprfjCx5LQ0E-o-21" value="" style="verticalLabelPosition=bottom;verticalAlign=top;html=1;shape=mxgraph.basic.rect;fillColor2=none;strokeWidth=1;size=20;indent=5;" vertex="1" parent="H1m3Zho_3u4-nAwAmxkF-1">
                    <mxGeometry x="228" y="111" width="520" height="129" as="geometry"/>
                </mxCell>
                <mxCell id="_zw212OprfjCx5LQ0E-o-22" value="查询" style="rounded=0;whiteSpace=wrap;html=1;" vertex="1" parent="H1m3Zho_3u4-nAwAmxkF-1">
                    <mxGeometry x="263" y="145.5" width="85" height="60" as="geometry"/>
                </mxCell>
                <mxCell id="_zw212OprfjCx5LQ0E-o-23" value="统计" style="rounded=0;whiteSpace=wrap;html=1;" vertex="1" parent="H1m3Zho_3u4-nAwAmxkF-1">
                    <mxGeometry x="373" y="145" width="85" height="60" as="geometry"/>
                </mxCell>
                <mxCell id="_zw212OprfjCx5LQ0E-o-24" value="查询包管理" style="rounded=0;whiteSpace=wrap;html=1;" vertex="1" parent="H1m3Zho_3u4-nAwAmxkF-1">
                    <mxGeometry x="598" y="145" width="120" height="60" as="geometry"/>
                </mxCell>
                <mxCell id="_zw212OprfjCx5LQ0E-o-25" value="导出" style="rounded=0;whiteSpace=wrap;html=1;" vertex="1" parent="H1m3Zho_3u4-nAwAmxkF-1">
                    <mxGeometry x="483" y="145" width="85" height="60" as="geometry"/>
                </mxCell>
                <mxCell id="_zw212OprfjCx5LQ0E-o-26" value="" style="html=1;shadow=0;dashed=0;align=center;verticalAlign=middle;shape=mxgraph.arrows2.arrow;dy=0.6;dx=40;direction=north;notch=0;" vertex="1" parent="H1m3Zho_3u4-nAwAmxkF-1">
                    <mxGeometry x="568" y="220" width="70" height="100" as="geometry"/>
                </mxCell>
                <mxCell id="_zw212OprfjCx5LQ0E-o-27" value="字典服务" style="rounded=0;whiteSpace=wrap;html=1;" vertex="1" parent="H1m3Zho_3u4-nAwAmxkF-1">
                    <mxGeometry x="490" y="335.5" width="100" height="60" as="geometry"/>
                </mxCell>
                <mxCell id="_zw212OprfjCx5LQ0E-o-28" value="" style="html=1;shadow=0;dashed=0;align=center;verticalAlign=middle;shape=mxgraph.arrows2.arrow;dy=0.6;dx=40;direction=north;notch=0;" vertex="1" parent="H1m3Zho_3u4-nAwAmxkF-1">
                    <mxGeometry x="318" y="220" width="70" height="100" as="geometry"/>
                </mxCell>
                <mxCell id="_zw212OprfjCx5LQ0E-o-29" value="" style="shape=image;verticalLabelPosition=bottom;labelBackgroundColor=#ffffff;verticalAlign=top;aspect=fixed;imageAspect=0;image=data:image/png,iVBORw0KGgoAAAANSUhEUgAAAEAAAABACAYAAACqaXHeAAAOcklEQVR4Xu1beZRU5ZX/3Vf1vkYiDlFQWeoVKHS9agX1uIxR56jHJSYu6GiiQVyCBMFojI4mGrM4kagTTUA5E/VooqiQOdEZIcY4nqjgEjERRwXtesVer1jFJRiB7u91vd+cW13VFm0bG+xqcbl/0VWvvnfv77v7vQg+4ySfcfnxOQCfa0AvI5BLN1zugOe5jj1lrxUo9PLr3/e6XjGBfKrvwTHarhYHBwr4QKYQXZHzzN3Z0H7zUw1AkDI/FcFYEG/EDm7NFuysqsCBZ5b7od3rUwlA4Lm3CeQbBFY4dC5tLLY83VnQwDNtfmiTnyoAcp6ZIcBpAHYWoIVAA8C3AVkp4EuxyNx1Bfs/RwMtQcqdC5FVfmjP+ThB6DEfoLcOyCSQ8/xidHTgGYI8WIBDKDhAREbF5DCB7AqgBcAmAHv6oe0xHrYHyB55eeC50wC5FMRiv2gzykgubcY65NRMGO3RFWOvpdzxCZG7ADzoh/br28N8T/ymRwBYMgK7tFmzUQ8TYiGA1RTMEuI0Cg7zQzuoxvl9T4CrSb4MyHJ1kmaLHT58A9b1hEDbekaPAKAvzafMLArU8W0WYimFQwSyGwAKQAJrBNiNwE4xMRvCp/R3CQUDst4P7ehtZb4nnu8xAJSZIGUeguBU/bcjOD0mDhXBiDhGiyMYTcATYGei6xRcgJhABHALKM/TwX21oVPPJZAQoNQTwusZPQpAuya4d1PkfAClkuC8BHF/Z0eX88zVAlwjQB+Sz0BkBIAvAvhCF4LFAiwn8RodbM4W7NieEr4uAJQdoGd+L8DJBNYK0A/gD/0wuqWsJV7DLQAvEfAJEA8l4+jxvVdjcVWo5nTDiQ7j4wA5GOAIQHbvJLBGjzwEs/2Cve6jgtHjGlBlKOeZFQIMA/GuCJ7KhPakwDOPATgewH1+aM9dNgSNUcLc6of2hM6C5D33HEJuBDAYwl+BovlFhzOtPN8Kcn5CnF+ODFsf3h4w6gbAEq/h5BI4R81MgGVsB6KxBE5qCqN7ldkVw9C/NTaL/NCm3osSOx0OlG4H4AFQoU73Q7uTfv/qQOyZ7NMwhQ6PE0J/U8v/X1my52RrtKk7gNQNgHZ1N88B+FKZEcE7cYzzmop2dpWxRcPNaLeERxSA/GAMYNJoXnAyIPP9sPWIyhnsKlnKD4bPpLkW4JcB6V8+kyjBwb1+wY7vjvB18wHVly9JmTElQVVgVm5MU+RmDYMJOoUYvEKA+0hcAkEDiBv9ov1x2aF65gaCE/0w0nDaJS1Om2xMTBPiGIpG1TKtThh76MilWPVhQNRVA8o3mDbvgOgnTuk00jmelK8IkO4iAi2xDk4ZvdIGVabznlmqOGRCe2LHZ8OMzxLOhuB0ARopfNZx+ONSm/OEI3iMwFcrZ29MxM6YkatayvnGB1H9AfAaHgd4DGL5nr+q9SZlZFEKexvHnULKmTVAbAHwdCJ2blCml6TN2SXi/gTly8lEcmFrbL8vKIfXfgSKgNzih63TKmbyiIZdP7SnBEPMGUjiF2DZh7QSvDAbRjM+NgBynjtRIHcIeU+mGJUbIBUPf5cmRAJuBCQEsL/mTxVbXiiCXShoFXI9IUe0V5V4wA+jybXC5D1zFcHL/E41R5Ayv4ZgfDm5In7iF+2UrkCouwbkhiaPEseZWwUgSJufg7gSkGcAjoLgLr9gr3zNM/skiCkQaEjsU2VWkyAAd2ZCqyFxK1qaMvu2CV6IhZc0FSJ1oFtR4Jn7AIxrB5WT/WKk0WUr6lUAKHIQgH1AXC8J3M8YuYS1u49chw1LB++Uaku2zQDkyA5NaOf8TUBu8kP7H10IuAqQvB+2HvNBKh547pOAHA1gXW1RVgPwP3IRH/275rQ7waHcWTnpLYLHZ8PoxcBreFbAXTOhbQpS5jfQ1hmQIPh3QLaIcA5i+RYE7V0jYqFftPtVOQo8dz0oa/2iVdPpkpbugd3b+piJwnKR1gTB3Z1DZN01IJ9yb6bIv0H4eiKKThi5Bi/lU33+hRJrm2xmJY7vBsrTlHiFQM6O6RzbVGx5Ou/1OQKI7yagtYJSKQE5rUT8GsK/+aFtrEq+4ED07bfBPTumnCCCQytZY2f5LMkLs8Xonl7TgMAza0D0hyAPIEuHkySWGyrFTwOB/0vG8eWtSdmYjOUlgpOyYXRH7ZUGnnlQM8KOzzSrBM6h4AwAB2lYZY3faC8a8XcBVmnOQZH5JfJ/9w1tc6/6gOaUOdURqLd/vrSz/dfku0YZ2LvCxDIAP/BD+zv9u9xCK3v5rrtDQdr8CMRPK8Lps+WIQWCTCFaDCEj8xZXkYyPCzS9213jragLNKXOWI/htAtgnhgwG+CCBfwLwrh/aflUmc57RG/2DH9qzahlvL5bcyRD5KoiR7TlDucn6VwFnZsJIvfxHoroCEHhmBcn1ArwqIt+k3ho5DyJHUeLDs4W253KeeVGI9X7RagannaVTKRgH8kiIDKh0l5tBPCm00zKrsPojSdzpx3UDIBhqRsPBK9oeEOEAUgaAvN0vRhflPLPYIRbAwT6M+VYJMi0hcgXJ/UXKTZE1AAY6gscbC++lwT0peN2dYJA2j4I4lsQCERwi5L01meCthFxMYJ1DfpEiDQAWCzCrFXb66BBvB57Rm37Zr6kDPjEABCkzhYLvChLjgdJ/CTmjKnzOM9cK8P1KtkeA75YT4hg3Zov2+o44nzJ5EbRlQrtPPQSvmwbkhvY5Upx4DsFjBLJAU2BH5IkS5EKABwNwASyk4CYhLqbw+WwhujzwzJ8BNjpwxjaGrX8KPPOCtsT8MNJeYd2ox32AhjPGON1x8DsIXiWZEogKoaHrj5nQntxxy55ZTuFsBaD6Wd4zfyGwi5CvUzD6EwVA4DVsEPBOApcBiCulrgGwXIAvEPhzbZwPPPfNGLiuKYzKZW0t5T13M4mSX4w6wmU91KDHNCDwzGYAKqzedCzEHyB8h1rDk5MJZ7kjVA3omAjnUiZySnZQZg3e6MgJ0u7FEuMnEGkBuPMnQgMCz6gAquaanT2WMHaCtqPyntkSg5uyYTRABcyl3OkicpIf2uFBqu9BQNt8v2jVJ+A1z4xLgFNBWdNWtAcnU+5jEOy/wwMQeGYTgaSgXLVpA7N8w0HKvQsiF4D4jV+0F7zn3ctj8RE6F4ghhxO8zoH8AOUMkTf4YXRr+fdewzOCuPGDhqs9ZQ7bbQJ5z51IyFS9dUfkjJh8WMANVYYDz30LkKQf2l06M1vZDThSbVwESRI3Z4v2yq18QNq8AqJvJrSaAteNtguAXLk641cSwFWNYTS9/caMjrBeyIT2n3OeuV4nwDrQ8AvRt6vczwX67OmZqwS4QIAhmgQAfEsg0zOh1UKng3SFRoANel7dpN+e2WAu7f4SdMZmw9Y9OzGsLehdLewQA1Mk2KK2nxuCRkmYH5JQQfYSQVEgRSIeFSeiAxIl905qF0iwzoFMbyy03qzn5j13HSALdKK0wwCgwgtlvB/a9kFEDeVS5rciOAtEEYIUiVcdwVC1bQLvkHgy6SRuGlnYMj/wTEgwnw2j4/SI4lDsuknMdDg4AsQWCv/oUCaRnOUXowk7BACL0w1XxOR1LNmh2dV4830ADHMnOiX5VWU4oeaQIzg/Fmd2U6FV29ZlymmYo0yHYJxfsDO7Ei7wjC5ZjHLAaY1hpDlF3ajbPiDw3DdIeSpbtOXOTJDGcKE5j4AOLZoEaCDBcg+vsifUFdd5zyyBYHOm8F5/r/pc4Jm1lXCqVeQhRPKg7DY0N7YHpW4BEHjuLYB8RxycFZcwRhwcBkLH1msdkdvUbgPPzAF4GCCPotyu4tTaFFeZW+KZcSUdg0FOydZMcwPPPADgcLRnil8LvHLnaJgf2r7bI9S2/KZbAOQ8s7I8ziLniWBRJoy+U/uSxcPMN+IYM2LIiU1ayKQbrgT5cyEefaVoT/06YNsdm1lC4G0/tIcEKVeHJOei3Cpnq19Jlsra5Rl9/gU/tApKXalbAASeq22o/o7DAxpXRi935kg9NkX+s3ZhIef1PVDQpnM5ivAOiLOaMX9BYJmCKeUWOJr90I7aypl6DScJ+DCBa7Oh/fe6St/dMFi5uRG63NRUtLqo0EF5zzxCYIsfWu3Qvo9ynlkkwL6VL3Qa9iwRz+zc+a3xA/cDGJt0bXrEMp0B1pe6pQH5lHuR3rAWOX5oqyNojdXfAuXbmS6GE+1+Q8dSoi0uXWvRWkEXoDYL5OHG0E6QimnUiqh9RP1b64X6it5+ercAqLFfHVBs8kO7c9lWU+7rwuiAaqMySLmTROQaEv3LKS7wSGagPTe/wawnOGtRGF2yX9qdCmqPXwboghQdvFTrLAPPlCC8wy9EF+1QAFSc00uVKa6us22E4OKSsNmN5WcxMMwBV2fCSHeAOkhTWtX7bBc3mh/u7scYE0k5SvMGgHsCclhEO3JUETo3qDt1WwOqnDSnzEOOYExZe/5BvNfnmz13qgOZsDa0A3VBuitpNBpQnPMdUPcI9ZmW3lL/bTKBWuabU+ZMR6CV4CCA2guY5YfRpbXPLPX6HtiGNh1gnN95gBGk3Mki5a6wmtS8BseeOXwl/hZ47gZQbveL9kd1v/rKC7ZZA7ZWb/e2ytTG03U4An9KEDMbV9n/DtJmpcSYmSnaa/Q3S4Y1fLcUU+1ad/+eo9M6LrsSK6vn6XK1EDoGH9Jbwm+3BnRmsHLblwl4LCG6Ha4+4nWHnBnDWStCnfkPlgQvyKyINM19H+m4PJb4nq4WHeoJyEfSgK4YWz7cjLYxxoDQNbcmAHtUukVaERYgeCUhnNfWFs2pFlXFL2Gnd1e7K7JhtFWJXU/Bq2f3OABdMa2NkD2GIhUn+gw1iAeVIIMccmAMroYkXxS2fa1NEr/ft9AytzeErn1HrwDwYUI1D0e66WP6L3Q7BAAfBlA9v/8cgHqi+0k4+zOvAf8P4lZkm2BBgIIAAAAASUVORK5CYII=;" vertex="1" parent="H1m3Zho_3u4-nAwAmxkF-1">
                    <mxGeometry x="238" y="883.5" width="64" height="64" as="geometry"/>
                </mxCell>
                <mxCell id="_zw212OprfjCx5LQ0E-o-30" value="" style="shape=image;verticalLabelPosition=bottom;labelBackgroundColor=#ffffff;verticalAlign=top;aspect=fixed;imageAspect=0;image=data:image/png,iVBORw0KGgoAAAANSUhEUgAAAEAAAABACAYAAACqaXHeAAAHsklEQVR4Xu1bbYxcVRl+3nvv7nRn7mxhd+fO0igUrHbnTmuiECmmMRIEggViVUpMJFF/1CpRoib80DaWiDGNiVIlVKKiJDVpaFCgRqOtUiWlGmysbefO1oKUrqGdO4t1MzPb7nbnPubudtbp0p17z50PPrrn18w57/u8z3nOe+6cc88ZwSVe5BLvPxYEWMiAS1yBjk+BV1+9Nr7YOLPcE1kOj0OaoJ/gAKD1kzwjglGIjJIcEfKoZujD8f4jI+0ap44IMDaW7dMneZsAd5O4Q7kzZJHATgK7q92xvZdffvC/yhjzOLRVAJ56b6KiT30BwH0g3tEi0i6AHRq9HfH08P5mMdsmwJlR+6aqh+8CeF+zJOfzJ/FUtyHfiPXnnKgx2iaAT6hStDeQ2BaVXEi/UwJuTFj5n4a0v8CsZQKMjWT7tG5+G4I/Ji1nZy1KqWBvE8GGKOQUfXwBNpqWc0rFryUCjLv2aoJbCPmgH1yESxKp/En/c+nkspTo3fsAvFuFWCRbQU6EGxMD+afC+jctQMm179KAxwiYdUF3mpazri4LPi+CH4Ul1ayd58n63sHcj8PgNCWA33kBnrhYIA24L245P6i1ld3M7wC5JQypVtgIuCZh5X8ThBVZgEadrwXVDFkd78v56Y9SYejjItqTQYRa2a5PcWnPkvwrjTAjCTDxWtae8ribxJIA8N8mLOejdVNhvwhWtbKTAVgHEkbPTdJ3YGw+u0gCVIr2M2FXdLqGe3oGnO3TWeBm7xXw4Q4K4Ie64Hk0N7ayAKWCvVkE3wzbCRG8kEg5H5h9FhTs4xBcFda/KTvie2ba+VrLpsDpk0NLu3UtRyCuQswDPttrOT/3fcqFzP0Q2aLiH8H2qGjcmhjIBy7ClDKg7No/A/AZVUICeTlh5a6py4IJCLpVcYLsBXjJI7ZXz+pbL7vq8Okge789tAD+6Hfp4gsQqXiQx2tZ4E8jTUQnaIAwAOoiYngUQ9Oo068jDWiig2IIqENg0K+D6IAYEOogzgJwIVLUPG9/PJ3/lSq50AKoAr9V7BcEeKuMVLt4BmbAmJtdpsMLta4OIqlBtsUtZ3rpPP4f+0pvio8H+Vy8XQ6RHBYdx8yB/J5oGDNegQKU3OwnBZzd3jYXTB5MWLlNs78Grs1m8GZ6IA+ZqdxXouIEClAZzX6LHjdGDVDvJ4KnEynnY3UC/A3AtU1jC/aYKefmKDjBAhSzu0jeHgV8ro8A/0pYzrtq9ZVi9hGS/jvD5ovg02bK+YUqUKAAZTfzAiDXqQLPZ59IWV0ie6f8dtVldRCHqodViwedvwbZXZCVQcYV1z5GYFmQXdh2Viet5BUvFtshAMlHkun8vWG5hHoIll3bJzugAtrI1hBv+aLU8D/bIQDAvaaVv1GFa4gpYJ8D/OVqa4qmYVV8YCZNWz0FQBbNdN5SYRooQMW1S3Pe96ngv8626vGGxYP5v7RFAKBgWs6gCsFAAcqu7Z/LtepUB56mZ3oHDg+3RwD5vWnlbm21AIcBrFABDbC9ovbuvtVTgMAPk5bzZRWugRlQce3nCKxWAW1km6iM98jVx/1tbDueAbeY6fxuFa6BApQLmS0QuV8FtIHtiGk5V9bay8XsDpB3twSb/L6Zzn9VFStQgEoxs4aUX6sCX9yeO0wr/6lZAVz7ZQBLm8UWwa5EyrkzCk6gAOOvrXinV60eBaQnSoA5Pl83Lec7dQI0vRkSYkMi7TwalVugAD5w2c08GzVAvR+pPZxM56YPR84Wh94zRYlEnJSjQg5DkFOd83P7EUqAVnT+zYqxIMCbdWQ6xSt0BswchvKLUYnVb1JKJ7M3io6Y5zEmGmJCxjwiJpo281n8OsREEAMZE9FiBBehVieI0ZNFEEwK+A8PPKTrXfvi/Yf+rcovtAA+cMW1nydwg2qQ+pOh8zgt3WLX8TkA8s/swmPJvvyRMDzVBCiuuJ30doUBrrM5blrO1bXvlWgYiiFRIbDVPNGzWa474O9m5y1KApwfvV8SWBuWEYEvJS1n9kS45Gb2yfmrNGExItsJ9oC4p9G9IWUB/EuPxiT/TmJ2SduA4PFxYKVlOeVp8Toz+hfSEeS6NFk331U6ZQF8dP+CxLkqc0EjQ4+bkoP5B/+f/uHvFQRhh2n3D2Uhsi6ROuK/fb5oiSSAj+TfDPOA5xoQeTaRmrxN5MWJN2j0Cx5wV6/lNOIYfDDSSOmSm/mQQP70OhviFUN48yIrf6zW1tFLUoISPH4izDI5cgbUpfWdJPwjrstqdbqGj/QMOH+ofS8V7I5dkxORKoC1iVQu1K9V0wLMpHfm/YBsIuGf+nzOtJzZewQdvSgJHPTIB3rTHbwoWRtl8sNG2XU3JtPO5vopUSrYj4pgfZiHVlM2Ig+dM7oeUL1K35IMmI94pWivJxFpy6sghvKo12O3TYAzp1ZeU9WqLyl0RMlUgDJFfhJl1DsigB+ExeXJiqetFU1bR3KNUg/n/d3m86Q8qRnGE1E2P3Nh25YBcwNNjK4cOudV1wpwR4QNVQGC7SC2m5ZzsBVC1jA6JkA96enl9ASv94jr6/80BfA0iBFNcGKKHNE1nvCq3SPJwUP+32TaUt4QAdrSk4igCwJEFO5t47aQAW+boYzYkf8Byb3jX3+AJXEAAAAASUVORK5CYII=;" vertex="1" parent="H1m3Zho_3u4-nAwAmxkF-1">
                    <mxGeometry x="291" y="527.75" width="64" height="64" as="geometry"/>
                </mxCell>
                <mxCell id="_zw212OprfjCx5LQ0E-o-31" value="" style="html=1;shadow=0;dashed=0;align=center;verticalAlign=middle;shape=mxgraph.arrows2.arrow;dy=0.6;dx=40;direction=north;notch=0;" vertex="1" parent="H1m3Zho_3u4-nAwAmxkF-1">
                    <mxGeometry x="288" y="410" width="70" height="90" as="geometry"/>
                </mxCell>
                <mxCell id="_zw212OprfjCx5LQ0E-o-34" value="" style="html=1;shadow=0;dashed=0;align=center;verticalAlign=middle;shape=mxgraph.arrows2.twoWayArrow;dy=0.6;dx=35;rotation=90;" vertex="1" parent="H1m3Zho_3u4-nAwAmxkF-1">
                    <mxGeometry x="448.75" y="606.75" width="446.5" height="60" as="geometry"/>
                </mxCell>
                <mxCell id="_zw212OprfjCx5LQ0E-o-35" value="" style="html=1;shadow=0;dashed=0;align=center;verticalAlign=middle;shape=mxgraph.arrows2.twoWayArrow;dy=0.65;dx=22;rotation=45;" vertex="1" parent="H1m3Zho_3u4-nAwAmxkF-1">
                    <mxGeometry x="392.35" y="424.73" width="119" height="60" as="geometry"/>
                </mxCell>
                <mxCell id="_zw212OprfjCx5LQ0E-o-37" value="MRQUERY" style="shape=cylinder3;whiteSpace=wrap;html=1;boundedLbl=1;backgroundOutline=1;size=15;" vertex="1" parent="H1m3Zho_3u4-nAwAmxkF-1">
                    <mxGeometry x="632" y="860.5" width="80" height="110" as="geometry"/>
                </mxCell>
                <mxCell id="_zw212OprfjCx5LQ0E-o-38" value="SECURITY" style="shape=cylinder3;whiteSpace=wrap;html=1;boundedLbl=1;backgroundOutline=1;size=15;" vertex="1" parent="H1m3Zho_3u4-nAwAmxkF-1">
                    <mxGeometry x="503" y="860.5" width="80" height="110" as="geometry"/>
                </mxCell>
                <mxCell id="_zw212OprfjCx5LQ0E-o-39" value="" style="html=1;shadow=0;dashed=0;align=center;verticalAlign=middle;shape=mxgraph.arrows2.twoWayArrow;dy=0.65;dx=22;rotation=90;" vertex="1" parent="H1m3Zho_3u4-nAwAmxkF-1">
                    <mxGeometry x="497.38" y="421.38" width="91.25" height="60" as="geometry"/>
                </mxCell>
                <mxCell id="_zw212OprfjCx5LQ0E-o-40" value="" style="html=1;shadow=0;dashed=0;align=center;verticalAlign=middle;shape=mxgraph.arrows2.twoWayArrow;dy=0.65;dx=22;rotation=90;" vertex="1" parent="H1m3Zho_3u4-nAwAmxkF-1">
                    <mxGeometry x="416.67" y="707.43" width="252.65" height="60" as="geometry"/>
                </mxCell>
                <mxCell id="_zw212OprfjCx5LQ0E-o-33" value="" style="html=1;shadow=0;dashed=0;align=center;verticalAlign=middle;shape=mxgraph.arrows2.arrow;dy=0.6;dx=40;direction=north;notch=0;" vertex="1" parent="H1m3Zho_3u4-nAwAmxkF-1">
                    <mxGeometry x="318" y="790" width="70" height="70" as="geometry"/>
                </mxCell>
                <mxCell id="_zw212OprfjCx5LQ0E-o-32" value="" style="html=1;shadow=0;dashed=0;align=center;verticalAlign=middle;shape=mxgraph.arrows2.arrow;dy=0.6;dx=40;direction=north;notch=0;" vertex="1" parent="H1m3Zho_3u4-nAwAmxkF-1">
                    <mxGeometry x="289" y="610" width="70" height="70" as="geometry"/>
                </mxCell>
                <mxCell id="_zw212OprfjCx5LQ0E-o-12" value="" style="shape=image;verticalLabelPosition=bottom;labelBackgroundColor=#ffffff;verticalAlign=top;aspect=fixed;imageAspect=0;image=data:image/png,iVBORw0KGgoAAAANSUhEUgAAAEAAAABACAYAAACqaXHeAAAKY0lEQVR4Xu2abXCcVRXHf+c+SbEwvGR324axIiKtjAgdURGGQXCUt1EU2ql0WygCbZJNIiPMVD85wBfxi6AFsklaitJNiG0iglIUZ6QKyqB0EOhoaCs6WqAhmw0UCn3Z5x7nPsmmm2Tfk02Zae+nnb3nnv+5/3vPPeee+whHeZOjfP4cI+DYDjjKGTjmAkf5Bjhyh+D9Ec6rUXOBhQtBjxdkFyLPGPxtjUnenKmFmVEXaIt43xDVxcBXgPn5J6l9iOk1Sb+vEQ5Vk4yqE9AZ4uw0ZokYFqMsEtincEKJk9oJ9KnY3uYk20ocU5ZYVQi4Zz6zZ+/3FqN2Cci1Ey1S4XuishT0C9l9CoMCm4HmSbMQ3YI1fUb9vsZh3ilrlgWEp5WA9hAX6uhqq/KJfLgK9zUP2VvjES5FzdJATuzmWJKt7WF5VJFrCtj8erArjO1tHuSZqRIxZQLi85hL2iwBdavtfLukZqw9t3GYV7KF20N8GjF/VjilJCXoVpA+I7av0oOzYgLioZorBLtYhSVAuCSDRZ8Ua/qOr/V7Vg6wL9eYeNi7FuwNuVynAMYwQq9zkVgq/buSbBkVKouAB+Zwpli32rJEJvhvXlAhCbwB+roib0jwm9exMmyRt1tS6afc2E0wa7iO+kOGU2vw6lW0Hks9wg3AJ0uflPwVtE8929v8Fq8VG1eUgDvAnBryFqvb4iOrXVtMaTn9Kvbz7oSPR2QLKlcVHas8grGdquYWgesLyB8Aep2LxIb8R/PJ5SWgI8J5Vs0SgcUKZ+VWoI9alZeNsVutMiBp9gy8w765IeZ5hnngLVC3U5SvAufk0qHoL5uHdEk8bLTAoblDhM5Z2M5bkrybkeuAWg2b1cAtCucVIGO7Vfo8z3Y1DeJC61ibREBbxFturF2uIl8rwNoO1LQ2pdK/L7piowLxsGwCF/omNxUaRemY1DO62i46FMNpq+NcY0yDwirguFzyAvsVicWG/J9l+scR8EDI3GmEO4qBicjypqT/SDG5if3tYfMjhe/nGOeSnM+5/xVyrnYpWA9GOPEgpkGVBoGFeXbt1tiQfjknAfGwPA1yaTEwEX7SlLS3FZOb2F9om0+QPaDQKdZ2xobZXgwnyCesaUCIFpMFnToBIyDaZ1XvaUnxl0Kg60LMT4txh9XdxY3LKbENYZ1J2g3Z94LSVjunw00XAWPK3wN9QUQGVBkA3hNhnrVaj8iC/FtxknF7QPsR2YWVhYh+KYf5GxG7ofTVnhkCyl3YYZB+QfsV+t012Fp/1/4T2Hn7bj6Ih82twE/LVVq6/LS5QFHI9wWCSaryqiD9qn5/ZqK5Rq8NMb9WzP+Kap6SwMwRkGWmbhbVe5tSPFfI9vaw/EGRsRN6SvPMO7ggAeZB4ObqAAdad6PcE0vZeyditEfM7ar8uFrYgjzvDuKmIf+xbIxJidAm8IYi5rsoa8Blc9VqullFf9Cc5NXOCAt9Na9WB0kf89G7W4dwBExq4whw19GmFP/ISLXVeVcZY9dUeVvuVtHtonLlNBJgUdYZtT9sHOa/Tq+7bCVDplVEry6SCLFXjOloGvS3ZAzqCHOWYloVWqbRyGqoehOlI5yyd38LDjqA+CmcjjGtSFBlml16IiS87PLz92fbh1x4cspc8nFAzUpgjcDHqzGDCnW+iNARS9qx+0S8jotETItOyg7LjwJ7HREidkPjEP0ZA9sj3tWKjZV0ha1wVkWHuQKLmo7sg60t5C1FaBH0ktzjyydgXDgz6q1vHC1iuA53bVbMClVuL2rw9AikgYSPbc8cbHdAzamhYLXdTfAzhWGmREBGtfzN5ecneH53prS1bi7z0tZcjwZG5KkfTIkBVwzdaKyNZw62jjpOs8a4c8m5ZX1p2qeFgDGoQdytTW13dvSIR7xlqF0B8vXSjCootU2UjaGUjWcOtrYQFxhjVlnlRoGa8jAKEFBCSTovlkLCqOlqSqV/OxZG53Cx+GYFwk3ArHIMFdUn1JhELOn3jJ07YVeasytBvlmOrmxZUXt29mJNKIjwMSOyDuSKSgFU5FlBE7Ow3ZnyVdtczpB0QMQK4FP5dAscdEQiZmMsmQ6qQAoSj5jVgqxE9aJK7QJ93Kq2tqQYd9fIWRNsD3muxnYjohdXDshuhY1ibXemqLH2TI6blfKWq9jlIK5OGDSBVxR+bbGJliH+6f6Lh/moYFYGdhQgrZB9Ch+IkhDPJpoG+VOgN+StjqX8dVnYh1XEw+Zh39j1raPCI5mgLlOCSstUqsFdYqQ7O7lyz2cf2ccCUfbG3uY/Y9t8LouwwcRXokQqXIB/ISRqxSZWDbLr/hMJe7WmFWhFdHsJJTF5DmX9npT/8F2QdpmgLyYqGhCxoEKjGHWPX/lqn52Ym7v4LWKX5iucloSp8owYTbzr2a41A+zrqOMcFdOqQsPh8eVEASWJsN4T+1BDkh1uC9cOe1HFRgW5vCSj8gt9gLBTLBbh9NKfwyYrFOEXirgD8zeutz1Uc6XFb5Wcle1yCMjCErTXWrOhedh/0v3dFuESsSY6Wog8aYpklD08eEkWEortyjydx0PezQiNoOfnV1ghAWMKlZfcrjAHbU/juyRdMqLGRIOcW1lU9kzKHaC8JIaEYLvcg2jbydSJF/j3txHOKK5uqgQcRngfWO9juzP+/EDIu84Tu6zI83ZxG3NJiD5pMInGpN/tut2HF76YptEssIwdOH0EZJ0rukWN6RpI+j13gY2HOV/ERHXk0JxKUeWA2+Y+pqslmX561L8vA3vT5Fteabxa5a6WlL0zXxh0W+m+0lTllNop8HCNsT0u/KytZ07tIRMFiYJeUKpeEf7tEqJR/w4qRW1h73oZyQIvK1XPRDmns3nIPb0fbpPfBoNwxG2gF1YKJKAKP0dNT+a9Prg+W80cmnlUBx88bJolNuGyyESIk/ZibhYJLjufrdQelB5jxLnPExN15H0dbo94UatBuLu6YmA30MVm0Z6aQ7Zn1V5SLjZbY5YDbiXPcN8LqPAU2Mczj6Dtc1gwlgzBaRXivxVECbGJ2CAv5tNR9PsAd/Ny/sxINjinQmPcsDdU6bFiN+UrULo3PlVznYxcb4+vBEuVv7soYcV2tQyyp5iOogRkFLj7/qG0iYoE/lwgzhaDdLm/PO++CwhehcAKuhD0qlIeZvNqV90ixiTKfbUumYBs4Lawd40RXabKdcWnW1WJ/S7n97CJhiR/rASpIgIyQO2nsMh6Jioj7lGpr5Zvt/Ka2+ZpbFdrkh3lKygQBSpRtjbESbXGRNHAPfIUIyvRPH6MiDyraMa/35u6xuAqPr2tI1RzuRWbOTRzfqpSNqKwSZGu5qT/eNljiwyYdgLG3MOFMn/0jlBJkVRIiqsOYbuakrww3RPP6KsaARkA9yVXOuxFjdhlJb0hCC+jdKXFJr6TDL4prGqrOgHjoocrkrorNLhE6OTxM9PNqmZzc8p3H0vPWJtRAsZ2RR2n+eJ9UdD5iuyuxX9udYrdMzbrLKAjQsCRmGg+zGMEfJhW40jYcmwHHAnWP0yYx3bAh2k1joQt/wcMaGZ9hgsknAAAAABJRU5ErkJggg==;" vertex="1" parent="H1m3Zho_3u4-nAwAmxkF-1">
                    <mxGeometry x="511.35" y="527.75" width="64" height="64" as="geometry"/>
                </mxCell>
            </root>
        </mxGraphModel>
    </diagram>
    <diagram id="HIPIH-8fhHPp6ZJ6N8AA" name="Current">
        <mxGraphModel dx="1086" dy="704" grid="1" gridSize="10" guides="1" tooltips="1" connect="1" arrows="1" fold="1" page="1" pageScale="1" pageWidth="850" pageHeight="1100" math="0" shadow="0">
            <root>
                <mxCell id="0"/>
                <mxCell id="1" parent="0"/>
                <mxCell id="23" value="" style="verticalLabelPosition=bottom;verticalAlign=top;html=1;shape=mxgraph.basic.rect;fillColor2=none;strokeWidth=1;size=20;indent=5;" parent="1" vertex="1">
                    <mxGeometry x="228" y="851" width="520" height="129" as="geometry"/>
                </mxCell>
                <mxCell id="78" value="" style="rounded=0;whiteSpace=wrap;html=1;dashed=1;" parent="1" vertex="1">
                    <mxGeometry x="308" y="860.5" width="140" height="110" as="geometry"/>
                </mxCell>
                <mxCell id="37" value="" style="verticalLabelPosition=bottom;verticalAlign=top;html=1;shape=mxgraph.basic.rect;fillColor2=none;strokeWidth=1;size=20;indent=5;" parent="1" vertex="1">
                    <mxGeometry x="228" y="301" width="520" height="129" as="geometry"/>
                </mxCell>
                <mxCell id="62" value="" style="rounded=0;whiteSpace=wrap;html=1;dashed=1;" parent="1" vertex="1">
                    <mxGeometry x="238" y="310" width="230" height="110" as="geometry"/>
                </mxCell>
                <mxCell id="61" value="" style="rounded=0;whiteSpace=wrap;html=1;dashed=1;" parent="1" vertex="1">
                    <mxGeometry x="478" y="310" width="250" height="110" as="geometry"/>
                </mxCell>
                <mxCell id="41" value="" style="verticalLabelPosition=bottom;verticalAlign=top;html=1;shape=mxgraph.basic.rect;fillColor2=none;strokeWidth=1;size=20;indent=5;" parent="1" vertex="1">
                    <mxGeometry x="458" y="491" width="170" height="129" as="geometry"/>
                </mxCell>
                <mxCell id="27" value="" style="verticalLabelPosition=bottom;verticalAlign=top;html=1;shape=mxgraph.basic.rect;fillColor2=none;strokeWidth=1;size=20;indent=5;" parent="1" vertex="1">
                    <mxGeometry x="228" y="671" width="400" height="129" as="geometry"/>
                </mxCell>
                <mxCell id="25" value="" style="verticalLabelPosition=bottom;verticalAlign=top;html=1;shape=mxgraph.basic.rect;fillColor2=none;strokeWidth=1;size=20;indent=5;" parent="1" vertex="1">
                    <mxGeometry x="228" y="491" width="190" height="129" as="geometry"/>
                </mxCell>
                <mxCell id="16" value="" style="group" parent="1" vertex="1" connectable="0">
                    <mxGeometry x="343" y="860.5" width="80" height="110" as="geometry"/>
                </mxCell>
                <mxCell id="10" value="MRFS" style="shape=cylinder3;whiteSpace=wrap;html=1;boundedLbl=1;backgroundOutline=1;size=15;" parent="16" vertex="1">
                    <mxGeometry width="80" height="110" as="geometry"/>
                </mxCell>
                <mxCell id="21" value="数据源" style="html=1;shadow=0;dashed=0;align=center;verticalAlign=middle;shape=mxgraph.arrows2.arrow;dy=0;dx=30;notch=30;" parent="1" vertex="1">
                    <mxGeometry x="80" y="850" width="132" height="130" as="geometry"/>
                </mxCell>
                <mxCell id="24" value="数据层" style="html=1;shadow=0;dashed=0;align=center;verticalAlign=middle;shape=mxgraph.arrows2.arrow;dy=0;dx=30;notch=30;" parent="1" vertex="1">
                    <mxGeometry x="80" y="490" width="132" height="130" as="geometry"/>
                </mxCell>
                <mxCell id="26" value="数据采集" style="html=1;shadow=0;dashed=0;align=center;verticalAlign=middle;shape=mxgraph.arrows2.arrow;dy=0;dx=30;notch=30;" parent="1" vertex="1">
                    <mxGeometry x="80" y="670" width="132" height="130" as="geometry"/>
                </mxCell>
                <mxCell id="31" value="数据同步器" style="rounded=0;whiteSpace=wrap;html=1;" parent="1" vertex="1">
                    <mxGeometry x="268" y="705" width="320" height="60" as="geometry"/>
                </mxCell>
                <mxCell id="36" value="服务层" style="html=1;shadow=0;dashed=0;align=center;verticalAlign=middle;shape=mxgraph.arrows2.arrow;dy=0;dx=30;notch=30;" parent="1" vertex="1">
                    <mxGeometry x="80" y="300" width="132" height="130" as="geometry"/>
                </mxCell>
                <mxCell id="38" value="检索服务" style="rounded=0;whiteSpace=wrap;html=1;" parent="1" vertex="1">
                    <mxGeometry x="263" y="335" width="195" height="60" as="geometry"/>
                </mxCell>
                <mxCell id="39" value="查询包服务" style="rounded=0;whiteSpace=wrap;html=1;" parent="1" vertex="1">
                    <mxGeometry x="488" y="335" width="100" height="60" as="geometry"/>
                </mxCell>
                <mxCell id="53" value="表现层" style="html=1;shadow=0;dashed=0;align=center;verticalAlign=middle;shape=mxgraph.arrows2.arrow;dy=0;dx=30;notch=30;" parent="1" vertex="1">
                    <mxGeometry x="80" y="110" width="132" height="130" as="geometry"/>
                </mxCell>
                <mxCell id="54" value="" style="verticalLabelPosition=bottom;verticalAlign=top;html=1;shape=mxgraph.basic.rect;fillColor2=none;strokeWidth=1;size=20;indent=5;" parent="1" vertex="1">
                    <mxGeometry x="228" y="111" width="520" height="129" as="geometry"/>
                </mxCell>
                <mxCell id="55" value="查询" style="rounded=0;whiteSpace=wrap;html=1;" parent="1" vertex="1">
                    <mxGeometry x="263" y="145.5" width="85" height="60" as="geometry"/>
                </mxCell>
                <mxCell id="56" value="统计" style="rounded=0;whiteSpace=wrap;html=1;" parent="1" vertex="1">
                    <mxGeometry x="373" y="145" width="85" height="60" as="geometry"/>
                </mxCell>
                <mxCell id="57" value="查询包管理" style="rounded=0;whiteSpace=wrap;html=1;" parent="1" vertex="1">
                    <mxGeometry x="598" y="145" width="120" height="60" as="geometry"/>
                </mxCell>
                <mxCell id="58" value="导出" style="rounded=0;whiteSpace=wrap;html=1;" parent="1" vertex="1">
                    <mxGeometry x="483" y="145" width="85" height="60" as="geometry"/>
                </mxCell>
                <mxCell id="59" value="" style="html=1;shadow=0;dashed=0;align=center;verticalAlign=middle;shape=mxgraph.arrows2.arrow;dy=0.6;dx=40;direction=north;notch=0;" parent="1" vertex="1">
                    <mxGeometry x="568" y="220" width="70" height="100" as="geometry"/>
                </mxCell>
                <mxCell id="60" value="字典服务" style="rounded=0;whiteSpace=wrap;html=1;" parent="1" vertex="1">
                    <mxGeometry x="618" y="335.5" width="100" height="60" as="geometry"/>
                </mxCell>
                <mxCell id="63" value="" style="html=1;shadow=0;dashed=0;align=center;verticalAlign=middle;shape=mxgraph.arrows2.arrow;dy=0.6;dx=40;direction=north;notch=0;" parent="1" vertex="1">
                    <mxGeometry x="318" y="220" width="70" height="100" as="geometry"/>
                </mxCell>
                <mxCell id="11" value="" style="shape=image;verticalLabelPosition=bottom;labelBackgroundColor=#ffffff;verticalAlign=top;aspect=fixed;imageAspect=0;image=data:image/png,iVBORw0KGgoAAAANSUhEUgAAAEAAAABACAYAAACqaXHeAAAOcklEQVR4Xu1beZRU5ZX/3Vf1vkYiDlFQWeoVKHS9agX1uIxR56jHJSYu6GiiQVyCBMFojI4mGrM4kagTTUA5E/VooqiQOdEZIcY4nqjgEjERRwXtesVer1jFJRiB7u91vd+cW13VFm0bG+xqcbl/0VWvvnfv77v7vQg+4ySfcfnxOQCfa0AvI5BLN1zugOe5jj1lrxUo9PLr3/e6XjGBfKrvwTHarhYHBwr4QKYQXZHzzN3Z0H7zUw1AkDI/FcFYEG/EDm7NFuysqsCBZ5b7od3rUwlA4Lm3CeQbBFY4dC5tLLY83VnQwDNtfmiTnyoAcp6ZIcBpAHYWoIVAA8C3AVkp4EuxyNx1Bfs/RwMtQcqdC5FVfmjP+ThB6DEfoLcOyCSQ8/xidHTgGYI8WIBDKDhAREbF5DCB7AqgBcAmAHv6oe0xHrYHyB55eeC50wC5FMRiv2gzykgubcY65NRMGO3RFWOvpdzxCZG7ADzoh/br28N8T/ymRwBYMgK7tFmzUQ8TYiGA1RTMEuI0Cg7zQzuoxvl9T4CrSb4MyHJ1kmaLHT58A9b1hEDbekaPAKAvzafMLArU8W0WYimFQwSyGwAKQAJrBNiNwE4xMRvCp/R3CQUDst4P7ehtZb4nnu8xAJSZIGUeguBU/bcjOD0mDhXBiDhGiyMYTcATYGei6xRcgJhABHALKM/TwX21oVPPJZAQoNQTwusZPQpAuya4d1PkfAClkuC8BHF/Z0eX88zVAlwjQB+Sz0BkBIAvAvhCF4LFAiwn8RodbM4W7NieEr4uAJQdoGd+L8DJBNYK0A/gD/0wuqWsJV7DLQAvEfAJEA8l4+jxvVdjcVWo5nTDiQ7j4wA5GOAIQHbvJLBGjzwEs/2Cve6jgtHjGlBlKOeZFQIMA/GuCJ7KhPakwDOPATgewH1+aM9dNgSNUcLc6of2hM6C5D33HEJuBDAYwl+BovlFhzOtPN8Kcn5CnF+ODFsf3h4w6gbAEq/h5BI4R81MgGVsB6KxBE5qCqN7ldkVw9C/NTaL/NCm3osSOx0OlG4H4AFQoU73Q7uTfv/qQOyZ7NMwhQ6PE0J/U8v/X1my52RrtKk7gNQNgHZ1N88B+FKZEcE7cYzzmop2dpWxRcPNaLeERxSA/GAMYNJoXnAyIPP9sPWIyhnsKlnKD4bPpLkW4JcB6V8+kyjBwb1+wY7vjvB18wHVly9JmTElQVVgVm5MU+RmDYMJOoUYvEKA+0hcAkEDiBv9ov1x2aF65gaCE/0w0nDaJS1Om2xMTBPiGIpG1TKtThh76MilWPVhQNRVA8o3mDbvgOgnTuk00jmelK8IkO4iAi2xDk4ZvdIGVabznlmqOGRCe2LHZ8OMzxLOhuB0ARopfNZx+ONSm/OEI3iMwFcrZ29MxM6YkatayvnGB1H9AfAaHgd4DGL5nr+q9SZlZFEKexvHnULKmTVAbAHwdCJ2blCml6TN2SXi/gTly8lEcmFrbL8vKIfXfgSKgNzih63TKmbyiIZdP7SnBEPMGUjiF2DZh7QSvDAbRjM+NgBynjtRIHcIeU+mGJUbIBUPf5cmRAJuBCQEsL/mTxVbXiiCXShoFXI9IUe0V5V4wA+jybXC5D1zFcHL/E41R5Ayv4ZgfDm5In7iF+2UrkCouwbkhiaPEseZWwUgSJufg7gSkGcAjoLgLr9gr3zNM/skiCkQaEjsU2VWkyAAd2ZCqyFxK1qaMvu2CV6IhZc0FSJ1oFtR4Jn7AIxrB5WT/WKk0WUr6lUAKHIQgH1AXC8J3M8YuYS1u49chw1LB++Uaku2zQDkyA5NaOf8TUBu8kP7H10IuAqQvB+2HvNBKh547pOAHA1gXW1RVgPwP3IRH/275rQ7waHcWTnpLYLHZ8PoxcBreFbAXTOhbQpS5jfQ1hmQIPh3QLaIcA5i+RYE7V0jYqFftPtVOQo8dz0oa/2iVdPpkpbugd3b+piJwnKR1gTB3Z1DZN01IJ9yb6bIv0H4eiKKThi5Bi/lU33+hRJrm2xmJY7vBsrTlHiFQM6O6RzbVGx5Ou/1OQKI7yagtYJSKQE5rUT8GsK/+aFtrEq+4ED07bfBPTumnCCCQytZY2f5LMkLs8Xonl7TgMAza0D0hyAPIEuHkySWGyrFTwOB/0vG8eWtSdmYjOUlgpOyYXRH7ZUGnnlQM8KOzzSrBM6h4AwAB2lYZY3faC8a8XcBVmnOQZH5JfJ/9w1tc6/6gOaUOdURqLd/vrSz/dfku0YZ2LvCxDIAP/BD+zv9u9xCK3v5rrtDQdr8CMRPK8Lps+WIQWCTCFaDCEj8xZXkYyPCzS9213jragLNKXOWI/htAtgnhgwG+CCBfwLwrh/aflUmc57RG/2DH9qzahlvL5bcyRD5KoiR7TlDucn6VwFnZsJIvfxHoroCEHhmBcn1ArwqIt+k3ho5DyJHUeLDs4W253KeeVGI9X7RagannaVTKRgH8kiIDKh0l5tBPCm00zKrsPojSdzpx3UDIBhqRsPBK9oeEOEAUgaAvN0vRhflPLPYIRbAwT6M+VYJMi0hcgXJ/UXKTZE1AAY6gscbC++lwT0peN2dYJA2j4I4lsQCERwi5L01meCthFxMYJ1DfpEiDQAWCzCrFXb66BBvB57Rm37Zr6kDPjEABCkzhYLvChLjgdJ/CTmjKnzOM9cK8P1KtkeA75YT4hg3Zov2+o44nzJ5EbRlQrtPPQSvmwbkhvY5Upx4DsFjBLJAU2BH5IkS5EKABwNwASyk4CYhLqbw+WwhujzwzJ8BNjpwxjaGrX8KPPOCtsT8MNJeYd2ox32AhjPGON1x8DsIXiWZEogKoaHrj5nQntxxy55ZTuFsBaD6Wd4zfyGwi5CvUzD6EwVA4DVsEPBOApcBiCulrgGwXIAvEPhzbZwPPPfNGLiuKYzKZW0t5T13M4mSX4w6wmU91KDHNCDwzGYAKqzedCzEHyB8h1rDk5MJZ7kjVA3omAjnUiZySnZQZg3e6MgJ0u7FEuMnEGkBuPMnQgMCz6gAquaanT2WMHaCtqPyntkSg5uyYTRABcyl3OkicpIf2uFBqu9BQNt8v2jVJ+A1z4xLgFNBWdNWtAcnU+5jEOy/wwMQeGYTgaSgXLVpA7N8w0HKvQsiF4D4jV+0F7zn3ctj8RE6F4ghhxO8zoH8AOUMkTf4YXRr+fdewzOCuPGDhqs9ZQ7bbQJ5z51IyFS9dUfkjJh8WMANVYYDz30LkKQf2l06M1vZDThSbVwESRI3Z4v2yq18QNq8AqJvJrSaAteNtguAXLk641cSwFWNYTS9/caMjrBeyIT2n3OeuV4nwDrQ8AvRt6vczwX67OmZqwS4QIAhmgQAfEsg0zOh1UKng3SFRoANel7dpN+e2WAu7f4SdMZmw9Y9OzGsLehdLewQA1Mk2KK2nxuCRkmYH5JQQfYSQVEgRSIeFSeiAxIl905qF0iwzoFMbyy03qzn5j13HSALdKK0wwCgwgtlvB/a9kFEDeVS5rciOAtEEYIUiVcdwVC1bQLvkHgy6SRuGlnYMj/wTEgwnw2j4/SI4lDsuknMdDg4AsQWCv/oUCaRnOUXowk7BACL0w1XxOR1LNmh2dV4830ADHMnOiX5VWU4oeaQIzg/Fmd2U6FV29ZlymmYo0yHYJxfsDO7Ei7wjC5ZjHLAaY1hpDlF3ajbPiDw3DdIeSpbtOXOTJDGcKE5j4AOLZoEaCDBcg+vsifUFdd5zyyBYHOm8F5/r/pc4Jm1lXCqVeQhRPKg7DY0N7YHpW4BEHjuLYB8RxycFZcwRhwcBkLH1msdkdvUbgPPzAF4GCCPotyu4tTaFFeZW+KZcSUdg0FOydZMcwPPPADgcLRnil8LvHLnaJgf2r7bI9S2/KZbAOQ8s7I8ziLniWBRJoy+U/uSxcPMN+IYM2LIiU1ayKQbrgT5cyEefaVoT/06YNsdm1lC4G0/tIcEKVeHJOei3Cpnq19Jlsra5Rl9/gU/tApKXalbAASeq22o/o7DAxpXRi935kg9NkX+s3ZhIef1PVDQpnM5ivAOiLOaMX9BYJmCKeUWOJr90I7aypl6DScJ+DCBa7Oh/fe6St/dMFi5uRG63NRUtLqo0EF5zzxCYIsfWu3Qvo9ynlkkwL6VL3Qa9iwRz+zc+a3xA/cDGJt0bXrEMp0B1pe6pQH5lHuR3rAWOX5oqyNojdXfAuXbmS6GE+1+Q8dSoi0uXWvRWkEXoDYL5OHG0E6QimnUiqh9RP1b64X6it5+ercAqLFfHVBs8kO7c9lWU+7rwuiAaqMySLmTROQaEv3LKS7wSGagPTe/wawnOGtRGF2yX9qdCmqPXwboghQdvFTrLAPPlCC8wy9EF+1QAFSc00uVKa6us22E4OKSsNmN5WcxMMwBV2fCSHeAOkhTWtX7bBc3mh/u7scYE0k5SvMGgHsCclhEO3JUETo3qDt1WwOqnDSnzEOOYExZe/5BvNfnmz13qgOZsDa0A3VBuitpNBpQnPMdUPcI9ZmW3lL/bTKBWuabU+ZMR6CV4CCA2guY5YfRpbXPLPX6HtiGNh1gnN95gBGk3Mki5a6wmtS8BseeOXwl/hZ47gZQbveL9kd1v/rKC7ZZA7ZWb/e2ytTG03U4An9KEDMbV9n/DtJmpcSYmSnaa/Q3S4Y1fLcUU+1ad/+eo9M6LrsSK6vn6XK1EDoGH9Jbwm+3BnRmsHLblwl4LCG6Ha4+4nWHnBnDWStCnfkPlgQvyKyINM19H+m4PJb4nq4WHeoJyEfSgK4YWz7cjLYxxoDQNbcmAHtUukVaERYgeCUhnNfWFs2pFlXFL2Gnd1e7K7JhtFWJXU/Bq2f3OABdMa2NkD2GIhUn+gw1iAeVIIMccmAMroYkXxS2fa1NEr/ft9AytzeErn1HrwDwYUI1D0e66WP6L3Q7BAAfBlA9v/8cgHqi+0k4+zOvAf8P4lZkm2BBgIIAAAAASUVORK5CYII=;" parent="1" vertex="1">
                    <mxGeometry x="238" y="883.5" width="64" height="64" as="geometry"/>
                </mxCell>
                <mxCell id="13" value="" style="shape=image;verticalLabelPosition=bottom;labelBackgroundColor=#ffffff;verticalAlign=top;aspect=fixed;imageAspect=0;image=data:image/png,iVBORw0KGgoAAAANSUhEUgAAAEAAAABACAYAAACqaXHeAAAHsklEQVR4Xu1bbYxcVRl+3nvv7nRn7mxhd+fO0igUrHbnTmuiECmmMRIEggViVUpMJFF/1CpRoib80DaWiDGNiVIlVKKiJDVpaFCgRqOtUiWlGmysbefO1oKUrqGdO4t1MzPb7nbnPubudtbp0p17z50PPrrn18w57/u8z3nOe+6cc88ZwSVe5BLvPxYEWMiAS1yBjk+BV1+9Nr7YOLPcE1kOj0OaoJ/gAKD1kzwjglGIjJIcEfKoZujD8f4jI+0ap44IMDaW7dMneZsAd5O4Q7kzZJHATgK7q92xvZdffvC/yhjzOLRVAJ56b6KiT30BwH0g3tEi0i6AHRq9HfH08P5mMdsmwJlR+6aqh+8CeF+zJOfzJ/FUtyHfiPXnnKgx2iaAT6hStDeQ2BaVXEi/UwJuTFj5n4a0v8CsZQKMjWT7tG5+G4I/Ji1nZy1KqWBvE8GGKOQUfXwBNpqWc0rFryUCjLv2aoJbCPmgH1yESxKp/En/c+nkspTo3fsAvFuFWCRbQU6EGxMD+afC+jctQMm179KAxwiYdUF3mpazri4LPi+CH4Ul1ayd58n63sHcj8PgNCWA33kBnrhYIA24L245P6i1ld3M7wC5JQypVtgIuCZh5X8ThBVZgEadrwXVDFkd78v56Y9SYejjItqTQYRa2a5PcWnPkvwrjTAjCTDxWtae8ribxJIA8N8mLOejdVNhvwhWtbKTAVgHEkbPTdJ3YGw+u0gCVIr2M2FXdLqGe3oGnO3TWeBm7xXw4Q4K4Ie64Hk0N7ayAKWCvVkE3wzbCRG8kEg5H5h9FhTs4xBcFda/KTvie2ba+VrLpsDpk0NLu3UtRyCuQswDPttrOT/3fcqFzP0Q2aLiH8H2qGjcmhjIBy7ClDKg7No/A/AZVUICeTlh5a6py4IJCLpVcYLsBXjJI7ZXz+pbL7vq8Okge789tAD+6Hfp4gsQqXiQx2tZ4E8jTUQnaIAwAOoiYngUQ9Oo068jDWiig2IIqENg0K+D6IAYEOogzgJwIVLUPG9/PJ3/lSq50AKoAr9V7BcEeKuMVLt4BmbAmJtdpsMLta4OIqlBtsUtZ3rpPP4f+0pvio8H+Vy8XQ6RHBYdx8yB/J5oGDNegQKU3OwnBZzd3jYXTB5MWLlNs78Grs1m8GZ6IA+ZqdxXouIEClAZzX6LHjdGDVDvJ4KnEynnY3UC/A3AtU1jC/aYKefmKDjBAhSzu0jeHgV8ro8A/0pYzrtq9ZVi9hGS/jvD5ovg02bK+YUqUKAAZTfzAiDXqQLPZ59IWV0ie6f8dtVldRCHqodViwedvwbZXZCVQcYV1z5GYFmQXdh2Viet5BUvFtshAMlHkun8vWG5hHoIll3bJzugAtrI1hBv+aLU8D/bIQDAvaaVv1GFa4gpYJ8D/OVqa4qmYVV8YCZNWz0FQBbNdN5SYRooQMW1S3Pe96ngv8626vGGxYP5v7RFAKBgWs6gCsFAAcqu7Z/LtepUB56mZ3oHDg+3RwD5vWnlbm21AIcBrFABDbC9ovbuvtVTgMAPk5bzZRWugRlQce3nCKxWAW1km6iM98jVx/1tbDueAbeY6fxuFa6BApQLmS0QuV8FtIHtiGk5V9bay8XsDpB3twSb/L6Zzn9VFStQgEoxs4aUX6sCX9yeO0wr/6lZAVz7ZQBLm8UWwa5EyrkzCk6gAOOvrXinV60eBaQnSoA5Pl83Lec7dQI0vRkSYkMi7TwalVugAD5w2c08GzVAvR+pPZxM56YPR84Wh94zRYlEnJSjQg5DkFOd83P7EUqAVnT+zYqxIMCbdWQ6xSt0BswchvKLUYnVb1JKJ7M3io6Y5zEmGmJCxjwiJpo281n8OsREEAMZE9FiBBehVieI0ZNFEEwK+A8PPKTrXfvi/Yf+rcovtAA+cMW1nydwg2qQ+pOh8zgt3WLX8TkA8s/swmPJvvyRMDzVBCiuuJ30doUBrrM5blrO1bXvlWgYiiFRIbDVPNGzWa474O9m5y1KApwfvV8SWBuWEYEvJS1n9kS45Gb2yfmrNGExItsJ9oC4p9G9IWUB/EuPxiT/TmJ2SduA4PFxYKVlOeVp8Toz+hfSEeS6NFk331U6ZQF8dP+CxLkqc0EjQ4+bkoP5B/+f/uHvFQRhh2n3D2Uhsi6ROuK/fb5oiSSAj+TfDPOA5xoQeTaRmrxN5MWJN2j0Cx5wV6/lNOIYfDDSSOmSm/mQQP70OhviFUN48yIrf6zW1tFLUoISPH4izDI5cgbUpfWdJPwjrstqdbqGj/QMOH+ofS8V7I5dkxORKoC1iVQu1K9V0wLMpHfm/YBsIuGf+nzOtJzZewQdvSgJHPTIB3rTHbwoWRtl8sNG2XU3JtPO5vopUSrYj4pgfZiHVlM2Ig+dM7oeUL1K35IMmI94pWivJxFpy6sghvKo12O3TYAzp1ZeU9WqLyl0RMlUgDJFfhJl1DsigB+ExeXJiqetFU1bR3KNUg/n/d3m86Q8qRnGE1E2P3Nh25YBcwNNjK4cOudV1wpwR4QNVQGC7SC2m5ZzsBVC1jA6JkA96enl9ASv94jr6/80BfA0iBFNcGKKHNE1nvCq3SPJwUP+32TaUt4QAdrSk4igCwJEFO5t47aQAW+boYzYkf8Byb3jX3+AJXEAAAAASUVORK5CYII=;" parent="1" vertex="1">
                    <mxGeometry x="291" y="527.75" width="64" height="64" as="geometry"/>
                </mxCell>
                <mxCell id="73" value="" style="html=1;shadow=0;dashed=0;align=center;verticalAlign=middle;shape=mxgraph.arrows2.arrow;dy=0.6;dx=40;direction=north;notch=0;" parent="1" vertex="1">
                    <mxGeometry x="288" y="410" width="70" height="100" as="geometry"/>
                </mxCell>
                <mxCell id="74" value="" style="html=1;shadow=0;dashed=0;align=center;verticalAlign=middle;shape=mxgraph.arrows2.arrow;dy=0.6;dx=40;direction=north;notch=0;" parent="1" vertex="1">
                    <mxGeometry x="288" y="611" width="70" height="100" as="geometry"/>
                </mxCell>
                <mxCell id="75" value="" style="html=1;shadow=0;dashed=0;align=center;verticalAlign=middle;shape=mxgraph.arrows2.arrow;dy=0.6;dx=40;direction=north;notch=0;" parent="1" vertex="1">
                    <mxGeometry x="348" y="780" width="70" height="100" as="geometry"/>
                </mxCell>
                <mxCell id="76" value="" style="html=1;shadow=0;dashed=0;align=center;verticalAlign=middle;shape=mxgraph.arrows2.twoWayArrow;dy=0.6;dx=35;rotation=90;" parent="1" vertex="1">
                    <mxGeometry x="458" y="610" width="445" height="60" as="geometry"/>
                </mxCell>
                <mxCell id="77" value="" style="html=1;shadow=0;dashed=0;align=center;verticalAlign=middle;shape=mxgraph.arrows2.twoWayArrow;dy=0.65;dx=22;rotation=45;" parent="1" vertex="1">
                    <mxGeometry x="391" y="428" width="128.25" height="60" as="geometry"/>
                </mxCell>
                <mxCell id="79" value="" style="rounded=0;whiteSpace=wrap;html=1;dashed=1;" parent="1" vertex="1">
                    <mxGeometry x="470" y="860" width="250" height="110" as="geometry"/>
                </mxCell>
                <mxCell id="65" value="MRQUERY" style="shape=cylinder3;whiteSpace=wrap;html=1;boundedLbl=1;backgroundOutline=1;size=15;" parent="1" vertex="1">
                    <mxGeometry x="500" y="860" width="80" height="110" as="geometry"/>
                </mxCell>
                <mxCell id="82" value="SECURITY" style="shape=cylinder3;whiteSpace=wrap;html=1;boundedLbl=1;backgroundOutline=1;size=15;" parent="1" vertex="1">
                    <mxGeometry x="610" y="860" width="80" height="110" as="geometry"/>
                </mxCell>
                <mxCell id="12" value="" style="shape=image;verticalLabelPosition=bottom;labelBackgroundColor=#ffffff;verticalAlign=top;aspect=fixed;imageAspect=0;image=data:image/png,iVBORw0KGgoAAAANSUhEUgAAAEAAAABACAYAAACqaXHeAAAKY0lEQVR4Xu2abXCcVRXHf+c+SbEwvGR324axIiKtjAgdURGGQXCUt1EU2ql0WygCbZJNIiPMVD85wBfxi6AFsklaitJNiG0iglIUZ6QKyqB0EOhoaCs6WqAhmw0UCn3Z5x7nPsmmm2Tfk02Zae+nnb3nnv+5/3vPPeee+whHeZOjfP4cI+DYDjjKGTjmAkf5Bjhyh+D9Ec6rUXOBhQtBjxdkFyLPGPxtjUnenKmFmVEXaIt43xDVxcBXgPn5J6l9iOk1Sb+vEQ5Vk4yqE9AZ4uw0ZokYFqMsEtincEKJk9oJ9KnY3uYk20ocU5ZYVQi4Zz6zZ+/3FqN2Cci1Ey1S4XuishT0C9l9CoMCm4HmSbMQ3YI1fUb9vsZh3ilrlgWEp5WA9hAX6uhqq/KJfLgK9zUP2VvjES5FzdJATuzmWJKt7WF5VJFrCtj8erArjO1tHuSZqRIxZQLi85hL2iwBdavtfLukZqw9t3GYV7KF20N8GjF/VjilJCXoVpA+I7av0oOzYgLioZorBLtYhSVAuCSDRZ8Ua/qOr/V7Vg6wL9eYeNi7FuwNuVynAMYwQq9zkVgq/buSbBkVKouAB+Zwpli32rJEJvhvXlAhCbwB+roib0jwm9exMmyRt1tS6afc2E0wa7iO+kOGU2vw6lW0Hks9wg3AJ0uflPwVtE8929v8Fq8VG1eUgDvAnBryFqvb4iOrXVtMaTn9Kvbz7oSPR2QLKlcVHas8grGdquYWgesLyB8Aep2LxIb8R/PJ5SWgI8J5Vs0SgcUKZ+VWoI9alZeNsVutMiBp9gy8w765IeZ5hnngLVC3U5SvAufk0qHoL5uHdEk8bLTAoblDhM5Z2M5bkrybkeuAWg2b1cAtCucVIGO7Vfo8z3Y1DeJC61ibREBbxFturF2uIl8rwNoO1LQ2pdK/L7piowLxsGwCF/omNxUaRemY1DO62i46FMNpq+NcY0yDwirguFzyAvsVicWG/J9l+scR8EDI3GmEO4qBicjypqT/SDG5if3tYfMjhe/nGOeSnM+5/xVyrnYpWA9GOPEgpkGVBoGFeXbt1tiQfjknAfGwPA1yaTEwEX7SlLS3FZOb2F9om0+QPaDQKdZ2xobZXgwnyCesaUCIFpMFnToBIyDaZ1XvaUnxl0Kg60LMT4txh9XdxY3LKbENYZ1J2g3Z94LSVjunw00XAWPK3wN9QUQGVBkA3hNhnrVaj8iC/FtxknF7QPsR2YWVhYh+KYf5GxG7ofTVnhkCyl3YYZB+QfsV+t012Fp/1/4T2Hn7bj6Ih82twE/LVVq6/LS5QFHI9wWCSaryqiD9qn5/ZqK5Rq8NMb9WzP+Kap6SwMwRkGWmbhbVe5tSPFfI9vaw/EGRsRN6SvPMO7ggAeZB4ObqAAdad6PcE0vZeyditEfM7ar8uFrYgjzvDuKmIf+xbIxJidAm8IYi5rsoa8Blc9VqullFf9Cc5NXOCAt9Na9WB0kf89G7W4dwBExq4whw19GmFP/ISLXVeVcZY9dUeVvuVtHtonLlNBJgUdYZtT9sHOa/Tq+7bCVDplVEry6SCLFXjOloGvS3ZAzqCHOWYloVWqbRyGqoehOlI5yyd38LDjqA+CmcjjGtSFBlml16IiS87PLz92fbh1x4cspc8nFAzUpgjcDHqzGDCnW+iNARS9qx+0S8jotETItOyg7LjwJ7HREidkPjEP0ZA9sj3tWKjZV0ha1wVkWHuQKLmo7sg60t5C1FaBH0ktzjyydgXDgz6q1vHC1iuA53bVbMClVuL2rw9AikgYSPbc8cbHdAzamhYLXdTfAzhWGmREBGtfzN5ecneH53prS1bi7z0tZcjwZG5KkfTIkBVwzdaKyNZw62jjpOs8a4c8m5ZX1p2qeFgDGoQdytTW13dvSIR7xlqF0B8vXSjCootU2UjaGUjWcOtrYQFxhjVlnlRoGa8jAKEFBCSTovlkLCqOlqSqV/OxZG53Cx+GYFwk3ArHIMFdUn1JhELOn3jJ07YVeasytBvlmOrmxZUXt29mJNKIjwMSOyDuSKSgFU5FlBE7Ow3ZnyVdtczpB0QMQK4FP5dAscdEQiZmMsmQ6qQAoSj5jVgqxE9aJK7QJ93Kq2tqQYd9fIWRNsD3muxnYjohdXDshuhY1ibXemqLH2TI6blfKWq9jlIK5OGDSBVxR+bbGJliH+6f6Lh/moYFYGdhQgrZB9Ch+IkhDPJpoG+VOgN+StjqX8dVnYh1XEw+Zh39j1raPCI5mgLlOCSstUqsFdYqQ7O7lyz2cf2ccCUfbG3uY/Y9t8LouwwcRXokQqXIB/ISRqxSZWDbLr/hMJe7WmFWhFdHsJJTF5DmX9npT/8F2QdpmgLyYqGhCxoEKjGHWPX/lqn52Ym7v4LWKX5iucloSp8owYTbzr2a41A+zrqOMcFdOqQsPh8eVEASWJsN4T+1BDkh1uC9cOe1HFRgW5vCSj8gt9gLBTLBbh9NKfwyYrFOEXirgD8zeutz1Uc6XFb5Wcle1yCMjCErTXWrOhedh/0v3dFuESsSY6Wog8aYpklD08eEkWEortyjydx0PezQiNoOfnV1ghAWMKlZfcrjAHbU/juyRdMqLGRIOcW1lU9kzKHaC8JIaEYLvcg2jbydSJF/j3txHOKK5uqgQcRngfWO9juzP+/EDIu84Tu6zI83ZxG3NJiD5pMInGpN/tut2HF76YptEssIwdOH0EZJ0rukWN6RpI+j13gY2HOV/ERHXk0JxKUeWA2+Y+pqslmX561L8vA3vT5Fteabxa5a6WlL0zXxh0W+m+0lTllNop8HCNsT0u/KytZ07tIRMFiYJeUKpeEf7tEqJR/w4qRW1h73oZyQIvK1XPRDmns3nIPb0fbpPfBoNwxG2gF1YKJKAKP0dNT+a9Prg+W80cmnlUBx88bJolNuGyyESIk/ZibhYJLjufrdQelB5jxLnPExN15H0dbo94UatBuLu6YmA30MVm0Z6aQ7Zn1V5SLjZbY5YDbiXPcN8LqPAU2Mczj6Dtc1gwlgzBaRXivxVECbGJ2CAv5tNR9PsAd/Ny/sxINjinQmPcsDdU6bFiN+UrULo3PlVznYxcb4+vBEuVv7soYcV2tQyyp5iOogRkFLj7/qG0iYoE/lwgzhaDdLm/PO++CwhehcAKuhD0qlIeZvNqV90ixiTKfbUumYBs4Lawd40RXabKdcWnW1WJ/S7n97CJhiR/rASpIgIyQO2nsMh6Jioj7lGpr5Zvt/Ka2+ZpbFdrkh3lKygQBSpRtjbESbXGRNHAPfIUIyvRPH6MiDyraMa/35u6xuAqPr2tI1RzuRWbOTRzfqpSNqKwSZGu5qT/eNljiwyYdgLG3MOFMn/0jlBJkVRIiqsOYbuakrww3RPP6KsaARkA9yVXOuxFjdhlJb0hCC+jdKXFJr6TDL4prGqrOgHjoocrkrorNLhE6OTxM9PNqmZzc8p3H0vPWJtRAsZ2RR2n+eJ9UdD5iuyuxX9udYrdMzbrLKAjQsCRmGg+zGMEfJhW40jYcmwHHAnWP0yYx3bAh2k1joQt/wcMaGZ9hgsknAAAAABJRU5ErkJggg==;" parent="1" vertex="1">
                    <mxGeometry x="511" y="527.75" width="64" height="64" as="geometry"/>
                </mxCell>
            </root>
        </mxGraphModel>
    </diagram>
</mxfile>